<svg data-v-423bf9ae="" xmlns="http://www.w3.org/2000/svg" viewBox="0 0 437.9022427468307 163" class="iconAbove"><!----><defs data-v-423bf9ae=""><linearGradient data-v-423bf9ae="" gradientTransform="rotate(25)" id="206e8aa3-96f6-41bf-b455-6bf6c02ee4bf" x1="0%" y1="0%" x2="100%" y2="0%"><stop data-v-423bf9ae="" offset="0%" style="stop-color: rgb(253, 146, 69); stop-opacity: 1;"></stop><stop data-v-423bf9ae="" offset="100%" style="stop-color: rgb(6, 169, 107); stop-opacity: 1;"></stop></linearGradient></defs><!----><g data-v-423bf9ae="" id="7f15f2ae-7412-461e-b7cd-7d30699e0417" fill="#ffffff" transform="matrix(6.109979823280842,0,0,6.109979823280842,-1.283090164785193,76.66598588076394)"><path d="M7.67 4.31L0.21 4.31L0.21 5.67L3.18 5.67L3.18 14L4.70 14L4.70 5.67L7.67 5.67ZM12.36 6.99C11.41 6.99 10.64 7.41 10.19 8.15L10.19 4.31L8.76 4.31L8.76 14L10.19 14L10.19 9.97C10.19 8.86 10.88 8.13 11.94 8.13C12.98 8.13 13.65 8.86 13.65 9.97L13.65 14L15.09 14L15.09 9.77C15.09 8.11 13.94 6.99 12.36 6.99ZM18.40 5.25C18.40 4.75 18.02 4.41 17.49 4.41C16.94 4.41 16.58 4.75 16.58 5.25C16.58 5.74 16.94 6.09 17.49 6.09C18.02 6.09 18.40 5.74 18.40 5.25ZM16.77 7.11L16.77 14L18.20 14L18.20 7.11ZM23.55 6.99C22.60 6.99 21.83 7.41 21.38 8.15L21.38 7.11L19.95 7.11L19.95 14L21.38 14L21.38 9.97C21.38 8.86 22.06 8.13 23.13 8.13C24.16 8.13 24.84 8.86 24.84 9.97L24.84 14L26.28 14L26.28 9.77C26.28 8.11 25.13 6.99 23.55 6.99ZM34.01 7.11L32.31 7.11L29.39 10.19L29.39 4.31L27.96 4.31L27.96 14L29.39 14L29.39 10.65L32.31 14L34.01 14L30.83 10.40ZM41.76 10.57C41.75 8.48 40.22 6.99 38.09 6.99C35.97 6.99 34.41 8.48 34.41 10.56C34.41 12.63 35.97 14.13 38.09 14.13C39.79 14.13 41.26 13.03 41.65 11.51L40.19 11.51C39.93 12.33 39.09 12.95 38.11 12.95C36.92 12.95 36.01 12.15 35.83 11.00L41.72 11.00C41.75 10.86 41.76 10.71 41.76 10.57ZM38.11 8.16C39.24 8.16 40.15 8.88 40.39 9.90L35.87 9.90C36.12 8.86 36.99 8.16 38.11 8.16ZM44.53 8.72L44.53 7.11L43.11 7.11L43.11 14L44.53 14L44.53 10.60C44.53 9.18 45.53 8.34 47.12 8.34L47.12 6.93C45.91 6.93 45.00 7.59 44.53 8.72ZM48.12 4.31L48.12 14L49.55 14L49.55 4.31ZM58.25 10.57C58.24 8.48 56.71 6.99 54.59 6.99C52.46 6.99 50.90 8.48 50.90 10.56C50.90 12.63 52.46 14.13 54.59 14.13C56.28 14.13 57.75 13.03 58.14 11.51L56.69 11.51C56.42 12.33 55.58 12.95 54.60 12.95C53.41 12.95 52.50 12.15 52.32 11.00L58.21 11.00C58.24 10.86 58.25 10.71 58.25 10.57ZM54.60 8.16C55.73 8.16 56.64 8.88 56.88 9.90L52.36 9.90C52.61 8.86 53.48 8.16 54.60 8.16ZM62.16 6.99C60.55 6.99 59.46 7.81 59.46 9.06C59.46 10.68 61.10 10.99 62.13 11.14C62.92 11.28 63.60 11.40 63.60 12.11C63.60 12.68 63.03 13.06 62.23 13.06C61.38 13.06 60.76 12.63 60.73 11.97L59.33 11.97C59.35 13.24 60.52 14.13 62.19 14.13C63.84 14.13 65.02 13.27 65.02 12.03C65.02 10.37 63.28 10.08 62.30 9.90C61.50 9.74 60.87 9.63 60.87 8.92C60.87 8.40 61.40 8.04 62.13 8.04C62.93 8.04 63.48 8.46 63.50 9.07L64.85 9.07C64.85 7.84 63.73 6.99 62.16 6.99ZM69.02 6.99C67.41 6.99 66.32 7.81 66.32 9.06C66.32 10.68 67.96 10.99 68.99 11.14C69.78 11.28 70.46 11.40 70.46 12.11C70.46 12.68 69.89 13.06 69.09 13.06C68.24 13.06 67.62 12.63 67.59 11.97L66.19 11.97C66.21 13.24 67.38 14.13 69.05 14.13C70.70 14.13 71.88 13.27 71.88 12.03C71.88 10.37 70.14 10.08 69.16 9.90C68.36 9.74 67.73 9.63 67.73 8.92C67.73 8.40 68.26 8.04 68.99 8.04C69.79 8.04 70.34 8.46 70.36 9.07L71.71 9.07C71.71 7.84 70.59 6.99 69.02 6.99Z"></path></g><!----><g data-v-423bf9ae="" id="a461b35d-78b1-4d33-b59c-831da6e03ed9" transform="matrix(2.8125,0,0,2.8125,174,0)" stroke="none" fill="#ffffff"><path d="M16 2c7.72 0 14 6.28 14 14s-6.28 14-14 14S2 23.72 2 16 8.28 2 16 2m0-2C7.163 0 0 7.163 0 16s7.163 16 16 16 16-7.163 16-16S24.837 0 16 0z"></path><circle cx="10.051" cy="12.604" r="3.661"></circle><circle cx="21.959" cy="12.604" r="3.661"></circle><path d="M10.064 20.273l12.28 2.581-.411 1.957-12.28-2.581z"></path></g><!----></svg>